<?xml version="1.0" encoding="UTF-8" standalone="no"?>
<!-- Generator: Adobe Illustrator 16.0.0, SVG Export Plug-In . SVG Version: 6.00 Build 0)  -->

<svg
   xmlns:dc="http://purl.org/dc/elements/1.1/"
   xmlns:cc="http://creativecommons.org/ns#"
   xmlns:rdf="http://www.w3.org/1999/02/22-rdf-syntax-ns#"
   xmlns:svg="http://www.w3.org/2000/svg"
   xmlns="http://www.w3.org/2000/svg"
   xmlns:sodipodi="http://sodipodi.sourceforge.net/DTD/sodipodi-0.dtd"
   xmlns:inkscape="http://www.inkscape.org/namespaces/inkscape"
   version="1.1"
   id="salt_shaker"
   x="0px"
   y="0px"
   width="297px"
   height="309px"
   viewBox="0 0 297 309"
   enable-background="new 0 0 297 309"
   xml:space="preserve"
   inkscape:version="0.91 r13725"
   sodipodi:docname="mouse.svg"><metadata
     id="metadata50"><rdf:RDF><cc:Work
         rdf:about=""><dc:format>image/svg+xml</dc:format><dc:type
           rdf:resource="http://purl.org/dc/dcmitype/StillImage" /></cc:Work></rdf:RDF></metadata><defs
     id="defs48" /><sodipodi:namedview
     pagecolor="#ffffff"
     bordercolor="#666666"
     borderopacity="1"
     objecttolerance="10"
     gridtolerance="10"
     guidetolerance="10"
     inkscape:pageopacity="0"
     inkscape:pageshadow="2"
     inkscape:window-width="1440"
     inkscape:window-height="851"
     id="namedview46"
     showgrid="false"
     inkscape:zoom="2.2783172"
     inkscape:cx="148.93892"
     inkscape:cy="154.5"
     inkscape:window-x="0"
     inkscape:window-y="1"
     inkscape:window-maximized="1"
     inkscape:current-layer="salt_shaker"
     showguides="true"
     inkscape:guide-bbox="true" /><ellipse
     style="fill:#adc6c8;fill-opacity:1;stroke:none;stroke-width:0.99708694;stroke-linecap:round;stroke-linejoin:round"
     id="path5048"
     cx="290.35315"
     cy="-325.70224"
     rx="54.965126"
     ry="106.62352"
     transform="matrix(-0.69715529,0.71692015,-0.99495184,-0.10035356,0,0)" /><path
     style="color:#000000;font-style:normal;font-variant:normal;font-weight:normal;font-stretch:normal;font-size:medium;line-height:normal;font-family:sans-serif;text-indent:0;text-align:start;text-decoration:none;text-decoration-line:none;text-decoration-style:solid;text-decoration-color:#000000;letter-spacing:normal;word-spacing:normal;text-transform:none;direction:ltr;block-progression:tb;writing-mode:lr-tb;baseline-shift:baseline;text-anchor:start;white-space:normal;clip-rule:nonzero;display:inline;overflow:visible;visibility:visible;opacity:1;isolation:auto;mix-blend-mode:normal;color-interpolation:sRGB;color-interpolation-filters:linearRGB;solid-color:#000000;solid-opacity:1;fill:#014463;fill-opacity:1;fill-rule:nonzero;stroke:#014463;stroke-width:12.62090588;stroke-linecap:round;stroke-linejoin:round;stroke-miterlimit:4;stroke-dasharray:none;stroke-dashoffset:0;stroke-opacity:1;color-rendering:auto;image-rendering:auto;shape-rendering:auto;text-rendering:auto;enable-background:accumulate"
     d="m 273.0643,52.141035 c -16.69246,-18.78867 -47.33312,-18.699366 -68.6084,0.202272 l -4.05973,3.606791 c -1.88501,1.705095 0.14401,4.023538 2.07376,2.334174 l 4.05973,-3.606791 c 19.85676,-17.641385 48.31301,-17.724971 63.89247,-0.189059 l 4.09318,4.607189 c 15.57947,17.535911 12.14579,45.784349 -7.71098,63.425739 l -33.20072,29.4966 c -0.43425,0.3889 -0.65123,0.79399 -0.76051,1.18027 l -27.96532,24.84528 c -21.27525,18.90162 -24.97183,49.31866 -8.27941,68.10729 l 4.0932,4.6072 c 16.69243,18.78866 47.33314,18.69935 68.6084,-0.20227 l 4.05975,-3.60681 c 1.88501,-1.70509 -0.14405,-4.02354 -2.07378,-2.33419 l -4.05974,3.60681 c -19.85674,17.64137 -48.31299,17.72499 -63.89246,0.18908 l -4.09319,-4.60722 c -15.57947,-17.53591 -12.14577,-45.78436 7.71097,-63.42573 l 33.20077,-29.49663 c 0.43421,-0.38888 0.65123,-0.79399 0.76049,-1.18026 l 27.96529,-24.84526 c 21.27528,-18.90164 24.97185,-49.318635 8.2794,-68.107285 l -4.09317,-4.60719 z"
     id="rect5021"
     inkscape:connector-curvature="0" /><g
     id="g5071"
     transform="matrix(1.6764932,1.8870245,-1.8870245,1.6764932,155.20122,-458.06899)"><rect
       ry="28.09091"
       y="124.21449"
       x="134.74858"
       height="88.223007"
       width="60.132103"
       id="rect4456"
       style="fill:#f5f7f6;fill-opacity:1;stroke:#014463;stroke-width:5;stroke-miterlimit:4;stroke-dasharray:none;stroke-opacity:1" /><rect
       style="fill:#a8dfe8;fill-opacity:1;stroke:none;stroke-width:5;stroke-miterlimit:4;stroke-dasharray:none;stroke-opacity:1"
       id="rect5062"
       width="56.764763"
       height="84.471611"
       x="140.31052"
       y="123.57668"
       ry="26.896435" /><path
       sodipodi:nodetypes="scsssscssss"
       inkscape:connector-curvature="0"
       id="rect5066"
       d="m 164.07642,126.21484 c -5.39326,0 -10.41996,1.41767 -14.6897,3.87722 3.23665,-1.21873 6.76918,-1.89605 10.47913,-1.89605 l 1.09581,0 c 15.56659,0 28.09855,11.79315 28.09855,26.44202 l 0,30.16058 c 0,9.57357 -1.92574,18.7047 -9.97978,23.34414 10.34401,-3.8949 14.19034,-14.16768 14.19034,-25.32531 l 0,-30.16058 c 0,-14.64887 -12.53195,-26.44202 -28.09854,-26.44202 z"
       style="fill:#8cccd7;fill-opacity:1;stroke:none;stroke-width:5;stroke-miterlimit:4;stroke-dasharray:none;stroke-opacity:1" /><path
       inkscape:connector-curvature="0"
       id="path5038"
       d="m 135.27042,159.22271 59.05039,0"
       style="fill:#000000;fill-opacity:0;fill-rule:evenodd;stroke:#014463;stroke-width:3;stroke-linecap:butt;stroke-linejoin:miter;stroke-miterlimit:4;stroke-dasharray:none;stroke-opacity:1" /><rect
       style="fill:none;fill-opacity:1;stroke:#014463;stroke-width:5;stroke-miterlimit:4;stroke-dasharray:none;stroke-opacity:1"
       id="rect5064"
       width="60.132103"
       height="88.223007"
       x="134.74858"
       y="124.21449"
       ry="28.09091" /><path
       inkscape:connector-curvature="0"
       id="path5040"
       d="m 164.79561,159.72271 0,-35.00822"
       style="fill:#000000;fill-opacity:0;fill-rule:evenodd;stroke:#014463;stroke-width:3;stroke-linecap:butt;stroke-linejoin:miter;stroke-miterlimit:4;stroke-dasharray:none;stroke-opacity:1" /><rect
       ry="0"
       y="132.72102"
       x="160.02388"
       height="18.539471"
       width="9.5434704"
       id="rect5042"
       style="fill:#edf0f4;fill-opacity:1;stroke:#014463;stroke-width:3;stroke-linecap:round;stroke-linejoin:round;stroke-miterlimit:4;stroke-dasharray:none;stroke-opacity:1" /></g></svg>