<?xml version="1.0" encoding="utf-8"?>
<!-- Generator: Adobe Illustrator 14.0.0, SVG Export Plug-In . SVG Version: 6.00 Build 43363)  -->
<!DOCTYPE svg PUBLIC "-//W3C//DTD SVG 1.1//EN" "http://www.w3.org/Graphics/SVG/1.1/DTD/svg11.dtd">
<svg version="1.1" xmlns="http://www.w3.org/2000/svg" xmlns:xlink="http://www.w3.org/1999/xlink" x="0px" y="0px" width="600px"
	 height="600px" viewBox="0 0 600 600" enable-background="new 0 0 600 600" xml:space="preserve">
<g id="Layer_1">
	<rect x="227.337" y="85.915" fill="#C8C8C8" stroke="#000000" stroke-width="5" width="146.35" height="94.901"/>
	<rect x="212.704" y="110.625" fill="#646464" stroke="#000000" stroke-width="5" width="14.633" height="43.869"/>
	<g>
		<path fill="none" d="M245.208,51.446v34.469h25.585c0-15.081,13.595-27.307,30.365-27.307c16.77,0,30.365,12.226,30.365,27.307
			h35.84V51.446H245.208z"/>
		<path fill="#646464" d="M301.159,58.608c-16.77,0-30.365,12.226-30.365,27.307h60.73
			C331.524,70.834,317.929,58.608,301.159,58.608z"/>
	</g>
	<rect x="373.688" y="110.625" fill="#646464" stroke="#000000" stroke-width="5" width="14.633" height="43.869"/>
	<rect x="294.856" y="33.093" fill="#C9C9C9" stroke="#000000" stroke-width="5" width="11.31" height="25.516"/>
	<g>
		<ellipse fill="#5A5A5A" stroke="#000000" cx="330.678" cy="115.012" rx="24.391" ry="21.935"/>
		<ellipse fill="#FFFF00" stroke="#000000" cx="330.679" cy="115.012" rx="19.513" ry="17.548"/>
	</g>
	<rect x="246.85" y="143.527" stroke="#000000" stroke-width="2" width="107.323" height="30.709"/>
	<g>
		<ellipse fill="#5A5A5A" stroke="#000000" cx="270.585" cy="115.012" rx="24.391" ry="21.935"/>
		<ellipse fill="#FFFF00" stroke="#000000" cx="270.586" cy="115.012" rx="19.513" ry="17.548"/>
	</g>
	<ellipse fill="#FF0000" stroke="#000000" stroke-width="5" cx="300.511" cy="18.947" rx="21.952" ry="19.742"/>
	<path fill="#0094FF" stroke="#000000" stroke-width="5" d="M325.55,187.835v-0.877c0-3.392-3.057-6.142-6.83-6.142h-35.123
		c-3.772,0-6.83,2.75-6.83,6.142v0.877c0,3.393,3.057,6.142,6.83,6.142c-3.772,0-6.83,2.749-6.83,6.142v0.877
		c0,3.392,3.057,6.142,6.83,6.142h35.123c3.773,0,6.83-2.75,6.83-6.142v-0.877c0-3.393-3.057-6.142-6.83-6.142
		C322.493,193.977,325.55,191.228,325.55,187.835z"/>
	<rect x="178.555" y="207.138" fill="#C8C8C8" stroke="#000000" stroke-width="5" width="243.915" height="149.155"/>
	<rect x="200.507" y="223.791" fill="#A9A9A9" stroke="#000000" stroke-width="2" width="162.229" height="96.691"/>
	<rect x="215.142" y="232.653" fill="#3FFFFF" stroke="#000000" stroke-width="2" width="78.053" height="78.965"/>
	<polygon fill="#C8C8C8" stroke="#000000" stroke-width="5" points="162.429,210.647 84.834,210.647 84.834,280.426 108.14,280.426 
		108.14,399.088 139.123,399.088 139.123,280.426 162.429,280.426 	"/>
	<polygon fill="#C8C8C8" stroke="#000000" points="299.81,356.293 178.555,356.293 220.547,481.686 299.81,481.686 379.069,481.686 
		421.063,356.293 	"/>
	<path fill="#FF0000" stroke="#000000" d="M94.365,464.518l16.348-14.7c-7.131-3.918-11.892-10.984-11.892-19.051
		c0-12.322,11.108-22.311,24.811-22.311s24.811,9.988,24.811,22.311c0,8.066-4.76,15.133-11.891,19.051l16.347,14.7
		c11.157-7.835,18.338-20.034,18.338-33.751c0-23.643-21.313-42.81-47.605-42.81c-26.292,0-47.605,19.167-47.605,42.81
		C76.026,444.483,83.208,456.683,94.365,464.518z"/>
	<path fill="#3FFFFF" stroke="#000000" stroke-width="2" d="M178.555,257.82c0,3.393-3.058,6.142-6.83,6.142h-0.976
		c-3.772,0-6.83-2.749-6.83-6.142v-31.585c0-3.392,3.058-6.142,6.83-6.142h0.976c3.772,0,6.83,2.75,6.83,6.142V257.82z"/>
	<path fill="#3FFFFF" stroke="#000000" stroke-width="2" d="M440.464,261.33c0,3.393-3.057,6.142-6.829,6.142h-0.976
		c-3.772,0-6.829-2.749-6.829-6.142v-31.586c0-3.392,3.057-6.142,6.829-6.142h0.976c3.772,0,6.829,2.75,6.829,6.142V261.33z"/>
	<g>
		<line fill="none" stroke="#000000" x1="199.202" y1="368.064" x2="225.386" y2="469.914"/>
		<line fill="none" stroke="#000000" x1="209.398" y1="368.064" x2="232.963" y2="469.914"/>
		<line fill="none" stroke="#000000" x1="219.593" y1="368.064" x2="240.541" y2="469.914"/>
		<line fill="none" stroke="#000000" x1="229.789" y1="368.064" x2="248.118" y2="469.914"/>
		<line fill="none" stroke="#000000" x1="239.984" y1="368.064" x2="255.695" y2="469.914"/>
		<line fill="none" stroke="#000000" x1="250.18" y1="368.064" x2="263.272" y2="469.914"/>
		<line fill="none" stroke="#000000" x1="260.376" y1="368.064" x2="270.849" y2="469.914"/>
		<line fill="none" stroke="#000000" x1="270.571" y1="368.064" x2="278.426" y2="469.914"/>
		<line fill="none" stroke="#000000" x1="280.767" y1="368.064" x2="286.003" y2="469.914"/>
		<line fill="none" stroke="#000000" x1="290.962" y1="368.064" x2="293.581" y2="469.914"/>
		<line fill="none" stroke="#000000" x1="301.158" y1="368.064" x2="301.157" y2="469.914"/>
		<line fill="none" stroke="#000000" x1="311.354" y1="368.064" x2="308.734" y2="469.914"/>
		<line fill="none" stroke="#000000" x1="321.55" y1="368.064" x2="316.312" y2="469.914"/>
		<line fill="none" stroke="#000000" x1="331.745" y1="368.064" x2="323.889" y2="469.914"/>
		<line fill="none" stroke="#000000" x1="341.94" y1="368.064" x2="331.466" y2="469.914"/>
		<line fill="none" stroke="#000000" x1="352.136" y1="368.064" x2="339.043" y2="469.914"/>
		<line fill="none" stroke="#000000" x1="362.332" y1="368.064" x2="346.62" y2="469.914"/>
		<line fill="none" stroke="#000000" x1="372.527" y1="368.064" x2="354.197" y2="469.914"/>
		<line fill="none" stroke="#000000" x1="382.723" y1="368.064" x2="361.774" y2="469.914"/>
		<line fill="none" stroke="#000000" x1="392.919" y1="368.064" x2="369.352" y2="469.914"/>
		<line fill="none" stroke="#000000" x1="403.114" y1="368.064" x2="376.929" y2="469.914"/>
	</g>
	<rect x="225.386" y="481.686" fill="#C8C8C8" stroke="#000000" width="24.392" height="87.738"/>
	<rect x="350.541" y="481.686" fill="#C8C8C8" stroke="#000000" width="24.392" height="87.738"/>
	<polygon fill="#C8C8C8" stroke="#000000" stroke-width="5" points="519.549,210.647 441.954,210.647 441.954,280.426 
		465.261,280.426 465.261,399.086 496.243,399.086 496.243,280.426 519.549,280.426 	"/>
	<path fill="#FF0000" stroke="#000000" d="M451.485,464.518l16.348-14.701c-7.132-3.919-11.892-10.984-11.892-19.051
		c0-12.321,11.107-22.312,24.811-22.312c13.702,0,24.811,9.99,24.811,22.312c0,8.066-4.76,15.132-11.892,19.051l16.349,14.701
		c11.157-7.835,18.338-20.035,18.338-33.752c0-23.644-21.313-42.81-47.605-42.81c-26.291,0-47.604,19.166-47.604,42.81
		C433.147,444.482,440.329,456.683,451.485,464.518z"/>
	<polygon fill="#FF0000" stroke="#000000" points="275.722,562.887 237.582,546.369 199.441,562.887 190.021,600 285.143,600 	"/>
	<polygon fill="#FF0000" stroke="#000000" points="400.876,562.887 362.735,546.369 324.595,562.887 315.176,600 410.297,600 	"/>
	<rect x="301.159" y="232.653" fill="#FFFF00" stroke="#000000" stroke-width="2" width="45.696" height="78.965"/>
	<ellipse fill="#FFFF00" stroke="#000000" stroke-width="3" cx="392.224" cy="244.951" rx="24.392" ry="21.935"/>
	<ellipse fill="#FF0000" stroke="#000000" stroke-width="3" cx="392.224" cy="296.092" rx="24.392" ry="21.935"/>
	<ellipse fill="#1F3AFF" stroke="#000000" stroke-width="3" cx="220.02" cy="336.784" rx="12.196" ry="10.968"/>
	<ellipse fill="#1F3AFF" stroke="#000000" stroke-width="3" cx="324.006" cy="336.783" rx="12.196" ry="10.968"/>
	<ellipse fill="#1F3AFF" stroke="#000000" stroke-width="3" cx="290.099" cy="336.783" rx="12.196" ry="10.968"/>
	<ellipse fill="#1F3AFF" stroke="#000000" stroke-width="3" cx="254.168" cy="336.783" rx="12.196" ry="10.968"/>
</g>
<g id="Layer_2">
</g>
<g id="Layer_3">
</g>
<g id="Layer_4">
</g>
<g id="Layer_5">
</g>
</svg>
